<svg width="24" height="25" viewBox="0 0 24 25" fill="none" xmlns="http://www.w3.org/2000/svg">
    <path fill-rule="evenodd" clip-rule="evenodd" d="M3 7.5C3 7.23478 3.10536 6.98043 3.29289 6.79289C3.48043 6.60536 3.73478 6.5 4 6.5H20C20.2652 6.5 20.5196 6.60536 20.7071 6.79289C20.8946 6.98043 21 7.23478 21 7.5C21 7.76522 20.8946 8.01957 20.7071 8.20711C20.5196 8.39464 20.2652 8.5 20 8.5H4C3.73478 8.5 3.48043 8.39464 3.29289 8.20711C3.10536 8.01957 3 7.76522 3 7.5ZM5 12C5 11.7348 5.10536 11.4804 5.29289 11.2929C5.48043 11.1054 5.73478 11 6 11H18C18.2652 11 18.5196 11.1054 18.7071 11.2929C18.8946 11.4804 19 11.7348 19 12C19 12.2652 18.8946 12.5196 18.7071 12.7071C18.5196 12.8946 18.2652 13 18 13H6C5.73478 13 5.48043 12.8946 5.29289 12.7071C5.10536 12.5196 5 12.2652 5 12ZM8 16.5C8 16.2348 8.10536 15.9804 8.29289 15.7929C8.48043 15.6054 8.73478 15.5 9 15.5H15C15.2652 15.5 15.5196 15.6054 15.7071 15.7929C15.8946 15.9804 16 16.2348 16 16.5C16 16.7652 15.8946 17.0196 15.7071 17.2071C15.5196 17.3946 15.2652 17.5 15 17.5H9C8.73478 17.5 8.48043 17.3946 8.29289 17.2071C8.10536 17.0196 8 16.7652 8 16.5Z" fill="#E4571B"/>
</svg>
