<svg width="179" height="46" viewBox="0 0 179 46" fill="none" xmlns="http://www.w3.org/2000/svg">
    <g clip-path="url(#clip0_1059_8068)">
        <path d="M22.5861 0H23.6789C24.2937 0.021354 24.9077 0.0542747 25.5199 0.112108C25.2746 1.04545 25.0178 1.97702 24.7752 2.91126C21.3125 2.63633 17.7889 3.25915 14.6331 4.70232C14.1569 3.87486 13.6683 3.05451 13.1841 2.23149C16.117 0.847041 19.339 0.0729594 22.5861 0Z" fill="#EEAF0E"/>
        <path d="M29.5474 3.8793C29.8015 2.96019 30.0504 2.04019 30.2956 1.11841C32.8786 1.97257 35.3282 3.24491 37.4636 4.9292C38.8196 5.99334 40.0475 7.21586 41.1394 8.54692C40.2954 9.02649 39.4586 9.51586 38.6119 9.9892C36.2214 7.18382 33.0593 5.03864 29.5474 3.8793Z" fill="#EEAF0E"/>
        <path d="M1.68262 14.3472C3.23813 10.588 5.78082 7.23367 9.03057 4.75928C9.51834 5.58763 9.99448 6.42311 10.4805 7.25324C7.86796 9.31924 5.79604 12.0419 4.47949 15.0893C3.5478 14.8419 2.6161 14.591 1.68262 14.3472Z" fill="#EEAF0E"/>
        <path d="M21.4414 5.31717C24.5846 5.01021 27.8084 5.54495 30.6724 6.87245C33.3941 8.12522 35.7865 10.0747 37.563 12.477C39.3539 14.8882 40.5147 17.7585 40.8898 20.7338C41.3408 24.2181 40.7278 27.8332 39.1257 30.9668C37.5353 34.1085 34.9828 36.7582 31.8959 38.4763C28.9907 40.1063 25.6157 40.8867 22.2854 40.7149C19.4626 40.5806 16.6764 39.7611 14.2349 38.3464C11.4586 36.7475 9.13068 34.3906 7.57159 31.603C5.96148 28.7425 5.18462 25.4299 5.34483 22.1574C5.47908 19.135 6.41525 16.1543 8.03251 13.5927C9.89322 10.6281 12.6507 8.22754 15.8575 6.79504C17.6206 6.00228 19.5154 5.50224 21.4414 5.31717ZM19.7713 8.28804C16.9771 8.85748 14.3745 10.29 12.4028 12.3382C10.2512 14.3801 8.76373 17.1037 8.24463 20.0176C7.9815 21.3665 8.00835 22.7456 8.03072 24.1122C8.14707 27.0929 9.24971 30.0255 11.1364 32.346C11.6483 32.9892 12.239 33.5631 12.8261 34.1379C14.7808 36.0144 17.294 37.3054 19.9647 37.8055C21.4262 38.0893 22.9244 38.0866 24.4065 38.0306C24.0825 36.3605 23.8839 34.6557 23.337 33.0364C23.073 32.3086 22.6917 31.6279 22.2684 30.9793C22.1753 30.8396 22.0795 30.6937 21.9337 30.6038C21.3949 30.2995 20.8346 30.0246 20.2287 29.8822C19.3659 29.5682 18.385 29.3253 17.8032 28.5583C17.2125 27.9453 17.1338 27.0519 17.1168 26.2467C17.0971 25.1078 17.541 24.041 17.8471 22.9644C16.9297 22.9013 16.0025 22.8506 15.1111 22.613C14.3512 22.4324 13.6468 22.0818 12.955 21.7286C12.2301 21.354 11.6608 20.7623 11.1391 20.1493C10.6262 19.5371 10.4338 18.7399 10.2378 17.9854C10.2172 17.739 10.0525 17.3101 10.3855 17.2087C11.2697 17.0752 12.1683 17.093 13.0606 17.101C14.3074 17.1081 15.5326 17.3661 16.7427 17.6349C18.1809 18.013 19.5547 18.7088 20.6341 19.7364C20.9545 19.4962 21.3098 19.3067 21.6831 19.159C21.6625 18.4641 21.811 17.7817 21.8961 17.0957C22.1556 15.2539 23.0667 13.5776 24.1604 12.0962C24.3233 11.8817 24.5936 11.6922 24.8764 11.7741C25.2022 11.8791 25.4662 12.1157 25.6837 12.3702C26.2153 13.0722 26.7326 13.8347 26.8866 14.7174C27.2043 16.1063 27.0665 17.5459 26.8248 18.9357C27.2526 19.0558 27.7064 19.1501 28.0689 19.4232C28.3902 19.6599 28.5423 20.0425 28.7186 20.3851C28.9576 20.3699 29.1814 20.4785 29.3389 20.6529C29.7747 21.12 29.9529 21.7749 29.9609 22.4003C30.1471 22.5311 30.3377 22.6593 30.5552 22.7322C31.5889 23.0721 32.6638 23.2723 33.6966 23.6131C34.1638 23.8506 34.6785 23.5873 35.1734 23.6478C35.5878 23.6718 36.1516 23.7732 36.2778 24.2395C36.3691 24.6834 36.387 25.1906 36.1105 25.5776C35.9136 25.8561 35.9834 26.2263 35.8124 26.5181C35.4106 27.4434 34.4995 27.9657 33.7468 28.577C33.5445 28.7701 33.1847 28.7772 33.0809 29.0655C32.7819 29.7079 32.2441 30.1901 31.7276 30.6581C31.2023 31.0514 30.5731 31.3103 29.926 31.4179C29.2163 31.5069 28.4976 31.4865 27.7861 31.434C28.1441 33.2757 28.7365 35.0641 29.3335 36.841C31.5379 35.9032 33.4022 34.3185 34.9398 32.5123C37.4565 29.4836 38.6576 25.4299 38.2701 21.5266C38.0302 19.0202 37.1361 16.5796 35.7041 14.5038C33.8622 11.8212 31.1378 9.73655 28.0367 8.70355C25.3892 7.80758 22.4966 7.67767 19.7713 8.28804Z" fill="#EEAF0E"/>
        <path d="M41.2979 14.058C42.1311 13.5927 42.95 13.1025 43.7824 12.6362C45.3737 15.8028 46.2633 19.328 46.2579 22.8737C46.2633 23.9707 46.1837 25.0669 46.0396 26.1551C45.1052 25.9139 44.1735 25.6621 43.2418 25.413C43.7385 21.5444 43.0431 17.5485 41.2979 14.058Z" fill="#EEAF0E"/>
        <path d="M88.751 15.1987C90.6305 14.9309 92.6129 15.237 94.2714 16.1757C96.0202 17.149 97.3537 18.8262 97.8979 20.7445C98.434 22.6272 98.2863 24.711 97.4235 26.4763C96.5321 28.3323 94.8549 29.7817 92.8984 30.4401C91.1496 31.0345 89.211 31.0594 87.4416 30.53C85.6668 30.0024 84.0863 28.8368 83.0982 27.2744C81.4218 24.6665 81.4791 21.0693 83.2602 18.5273C84.5042 16.7051 86.5645 15.4959 88.751 15.1987ZM88.998 18.2995C87.9016 18.5237 86.9082 19.1857 86.279 20.1057C84.8837 22.1165 85.205 25.1737 87.1302 26.7432C88.3482 27.7629 90.1123 28.0387 91.6069 27.5262C92.5861 27.1934 93.4309 26.5021 93.9617 25.6203C94.6822 24.4441 94.8415 22.9724 94.496 21.6494C94.2024 20.5301 93.4927 19.5131 92.5037 18.8947C91.4754 18.2417 90.1848 18.0495 88.998 18.2995Z" fill="#EEAF0E"/>
        <path d="M111.651 15.1987C113.423 14.9478 115.285 15.2023 116.883 16.0218C118.359 16.7691 119.584 17.9997 120.308 19.4811C121.618 22.129 121.316 25.51 119.473 27.8394C118.356 29.2817 116.71 30.2915 114.927 30.6875C113.015 31.111 110.952 30.9277 109.181 30.0807C107.729 29.3902 106.501 28.2407 105.736 26.8322C104.812 25.1524 104.565 23.1371 104.967 21.2722C105.325 19.6066 106.257 18.07 107.575 16.9818C108.728 16.0191 110.163 15.4087 111.651 15.1987ZM111.912 18.2924C110.915 18.4908 109.994 19.0433 109.36 19.8352C107.861 21.6877 107.957 24.631 109.603 26.3642C110.678 27.5298 112.39 28.004 113.932 27.6801C115.217 27.4346 116.356 26.576 116.963 25.4255C117.955 23.5686 117.689 21.072 116.193 19.5523C115.116 18.4223 113.43 17.973 111.912 18.2924Z" fill="#EEAF0E"/>
        <path d="M62.4613 15.3749C64.8823 15.3758 67.3033 15.3722 69.7252 15.3767C71.1983 15.3998 72.7485 15.7788 73.8493 16.8047C74.8607 17.7238 75.2912 19.1261 75.267 20.4598C75.2867 21.7117 74.8938 23.0072 74.0059 23.9218C73.451 24.5108 72.735 24.929 71.9797 25.2111C73.2398 27.0235 74.4892 28.8439 75.7467 30.6581C74.4293 30.6581 73.1118 30.6554 71.7944 30.6599C70.6837 29.0379 69.5855 27.407 68.4784 25.7832C67.5977 25.7832 66.7171 25.7832 65.8364 25.7832V30.6581C64.7114 30.6572 63.5864 30.6581 62.4613 30.6581C62.4604 25.5634 62.4613 20.4696 62.4613 15.3749ZM65.8364 18.4027C65.8364 19.8619 65.8355 21.3211 65.8373 22.7803H69.1846C69.7601 22.7812 70.3543 22.6913 70.8555 22.395C71.9662 21.7793 72.1408 20.1199 71.3702 19.1777C70.8761 18.6118 70.0876 18.4259 69.3636 18.4045C68.1884 18.3992 67.0124 18.4036 65.8364 18.4027Z" fill="#EEAF0E"/>
        <path d="M128.345 15.3749C130.819 15.3767 133.292 15.3705 135.765 15.3785C137.21 15.4185 138.763 15.8474 139.717 16.9925C140.533 17.9285 140.698 19.28 140.398 20.45C140.148 21.4332 139.393 22.1957 138.536 22.6984C139.3 22.9956 140.057 23.3924 140.594 24.0259C141.061 24.5705 141.305 25.2769 141.361 25.9843C141.456 27.0048 141.262 28.0974 140.599 28.9098C139.823 29.8823 138.592 30.3592 137.393 30.5611C136.326 30.7498 135.24 30.6919 134.162 30.7017C132.223 30.7008 130.284 30.7017 128.345 30.7008C128.346 25.5928 128.346 20.4838 128.345 15.3749ZM131.66 18.2773C131.658 19.3539 131.659 20.4296 131.659 21.5062C132.581 21.5044 133.503 21.5062 134.424 21.5044C135.153 21.5427 135.943 21.5124 136.575 21.104C137.228 20.6823 137.343 19.7302 136.986 19.0834C136.627 18.4953 135.886 18.3182 135.242 18.2844C134.048 18.2693 132.853 18.2844 131.66 18.2773ZM131.66 24.3231C131.658 25.4397 131.659 26.5573 131.659 27.6739C133.06 27.6712 134.461 27.6801 135.862 27.6695C136.572 27.6419 137.402 27.4951 137.824 26.8616C138.202 26.2227 138.13 25.2609 137.501 24.8C136.981 24.421 136.312 24.3427 135.686 24.3258C134.344 24.3204 133.001 24.3267 131.66 24.3231Z" fill="#EEAF0E"/>
        <path d="M148.411 30.5958C148.414 25.5225 148.427 20.4482 148.432 15.3749C152.287 15.3758 156.143 15.374 159.998 15.3758C159.996 16.3705 160 17.3661 159.996 18.3609C157.252 18.3582 154.509 18.3618 151.766 18.3591C151.764 19.3868 151.765 20.4135 151.765 21.4403C154.178 21.4421 156.591 21.4385 159.004 21.4421C159.004 22.4377 159.003 23.4324 159.004 24.4272C156.591 24.4263 154.178 24.4272 151.765 24.4272V27.6107C154.544 27.6107 157.323 27.6116 160.102 27.6098C160.102 28.6054 160.101 29.6011 160.102 30.5958C156.205 30.5949 152.308 30.5958 148.411 30.5958Z" fill="#EEAF0E"/>
        <path d="M166.284 15.3962C170.523 15.3953 174.761 15.3953 179 15.3962V18.4836C177.451 18.4845 175.902 18.4827 174.353 18.4845C174.353 22.5355 174.354 26.5874 174.353 30.6385C173.221 30.6393 172.089 30.6385 170.958 30.6385C170.958 26.5874 170.958 22.5355 170.958 18.4845C169.399 18.4827 167.841 18.4845 166.284 18.4836C166.283 17.4542 166.283 16.4247 166.284 15.3962Z" fill="#EEAF0E"/>
        <path d="M0 22.3897C0.049225 21.2588 0.15036 20.1297 0.3401 19.0131C1.26105 19.2524 2.17754 19.5051 3.09491 19.7551C2.95529 21.0835 2.81746 22.419 2.87385 23.7572C2.93381 25.7298 3.32582 27.6837 3.96664 29.5486C4.06957 29.763 3.91563 29.9694 3.71872 30.0504C2.97766 30.4348 2.28941 30.9117 1.5394 31.2774C0.607705 28.8626 0.086815 26.2965 0 23.7118L0 22.3897Z" fill="#EEAF0E"/>
        <path d="M42.1026 30.2096C42.236 30.1357 42.3827 30.222 42.5161 30.2505C43.284 30.489 44.0779 30.6384 44.8422 30.8867C43.9374 33.4403 42.5483 35.8248 40.7843 37.8872C39.4624 39.4327 37.9247 40.7914 36.252 41.9516C35.7714 41.1304 35.2934 40.3073 34.8271 39.4781C35.8636 38.6924 36.8803 37.8721 37.778 36.9281C39.5563 35.0943 40.9588 32.9082 41.9084 30.5441C41.9639 30.4285 41.9952 30.2897 42.1026 30.2096Z" fill="#EEAF0E"/>
        <path d="M3.8125 35.6139C4.62516 35.1174 5.45572 34.6512 6.27823 34.1716C8.31167 37.1914 11.1667 39.6543 14.4728 41.2087C14.2214 42.1411 13.9725 43.0753 13.7264 44.0096C11.6742 43.0807 9.74098 41.8804 8.0369 40.4105C6.41158 39.0181 5.00106 37.3872 3.8125 35.6139Z" fill="#EEAF0E"/>
        <path d="M19.0816 42.7498C22.8889 43.5159 26.9056 43.1662 30.5241 41.7631C31.0056 42.5941 31.4871 43.426 31.9749 44.2544C29.3732 45.3123 26.5843 45.9209 23.7722 46H22.521C21.1159 45.9467 19.7143 45.7901 18.3369 45.5098C18.5821 44.5889 18.8408 43.6716 19.0816 42.7498Z" fill="#EEAF0E"/>
    </g>
    <defs>
        <clipPath id="clip0_1059_8068">
            <rect width="179" height="46" fill="white"/>
        </clipPath>
    </defs>
</svg>
