<svg width="36" height="36" viewBox="0 0 36 36" fill="none" xmlns="http://www.w3.org/2000/svg">
    <g clip-path="url(#clip0_1059_6398)">
        <path d="M23.4 18C23.4 19.4321 22.831 20.8057 21.8183 21.8183C20.8057 22.831 19.4321 23.4 18 23.4C16.5678 23.4 15.1943 22.831 14.1816 21.8183C13.1689 20.8057 12.6 19.4321 12.6 18C12.6012 17.6916 12.6306 17.3916 12.6882 17.1H10.8V24.2946C10.8 24.795 11.205 25.2 11.7054 25.2H24.2964C24.5362 25.1995 24.766 25.1039 24.9354 24.9341C25.1048 24.7644 25.2 24.5344 25.2 24.2946V17.1H23.3118C23.3694 17.3916 23.3988 17.6916 23.4 18ZM18 21.6C18.4728 21.5999 18.9411 21.5066 19.3779 21.3255C19.8147 21.1445 20.2116 20.8791 20.5459 20.5447C20.8802 20.2102 21.1454 19.8132 21.3262 19.3762C21.5071 18.9393 21.6001 18.471 21.6 17.9982C21.5999 17.5253 21.5066 17.0571 21.3255 16.6202C21.1445 16.1834 20.8791 15.7865 20.5447 15.4522C20.2102 15.1179 19.8132 14.8528 19.3762 14.6719C18.9393 14.4911 18.471 14.3981 17.9982 14.3982C17.0432 14.3984 16.1273 14.778 15.4522 15.4535C14.7771 16.129 14.3979 17.045 14.3982 18C14.3984 18.955 14.778 19.8708 15.4535 20.5459C16.129 21.2211 17.045 21.6002 18 21.6ZM22.32 14.22H24.4782C24.5492 14.2202 24.6196 14.2064 24.6854 14.1794C24.7511 14.1524 24.8108 14.1126 24.8612 14.0624C24.9115 14.0123 24.9514 13.9527 24.9787 13.887C25.0059 13.8214 25.02 13.751 25.02 13.68V11.5218C25.0202 11.4506 25.0064 11.38 24.9792 11.3142C24.9521 11.2483 24.9122 11.1885 24.8618 11.1381C24.8115 11.0878 24.7516 11.0479 24.6858 11.0207C24.6199 10.9936 24.5494 10.9797 24.4782 10.98H22.32C22.2488 10.9797 22.1782 10.9936 22.1124 11.0207C22.0465 11.0479 21.9867 11.0878 21.9363 11.1381C21.886 11.1885 21.8461 11.2483 21.8189 11.3142C21.7918 11.38 21.7779 11.4506 21.7782 11.5218V13.68C21.78 13.977 22.023 14.22 22.32 14.22ZM18 0.719971C13.417 0.719971 9.02179 2.54054 5.78117 5.78117C2.54054 9.02179 0.719971 13.417 0.719971 18C0.719971 22.5829 2.54054 26.9781 5.78117 30.2188C9.02179 33.4594 13.417 35.28 18 35.28C20.2692 35.28 22.5162 34.833 24.6127 33.9646C26.7092 33.0962 28.6142 31.8234 30.2188 30.2188C31.8234 28.6142 33.0962 26.7092 33.9646 24.6127C34.833 22.5162 35.28 20.2692 35.28 18C35.28 15.7307 34.833 13.4837 33.9646 11.3872C33.0962 9.29069 31.8234 7.38576 30.2188 5.78117C28.6142 4.17657 26.7092 2.90373 24.6127 2.03533C22.5162 1.16693 20.2692 0.719971 18 0.719971ZM27 25.0002C27 26.1 26.1 27 25.0002 27H10.9998C9.89997 27 8.99997 26.1 8.99997 25.0002V10.9998C8.99997 9.89997 9.89997 8.99997 10.9998 8.99997H25.0002C26.1 8.99997 27 9.89997 27 10.9998V25.0002Z" fill="white"/>
    </g>
    <defs>
        <clipPath id="clip0_1059_6398">
            <rect width="36" height="36" fill="white"/>
        </clipPath>
    </defs>
</svg>
