<svg width="115" height="115" viewBox="0 0 115 115" fill="none" xmlns="http://www.w3.org/2000/svg">
    <g filter="url(#filter0_d_1059_6679)">
        <rect x="20" y="19" width="75" height="75" rx="37.5" fill="url(#paint0_linear_1059_6679)" fill-opacity="0.25" shape-rendering="crispEdges"/>
        <rect x="20.5" y="19.5" width="74" height="74" rx="37" stroke="#FFB735" stroke-dasharray="6 3" shape-rendering="crispEdges"/>
        <path d="M60.5494 35.4094C59.5971 34.9546 58.5552 34.7186 57.5 34.7186C56.4448 34.7186 55.4029 34.9546 54.4506 35.4094C53.6134 35.811 52.8463 36.4655 51.7731 37.3814L51.6053 37.5216C50.6788 38.3568 49.4934 38.8482 48.2478 38.9135L48.031 38.9305C46.6243 39.0431 45.6191 39.1218 44.7436 39.432C43.7486 39.7835 42.8448 40.3532 42.0984 41.0992C41.352 41.8452 40.7819 42.7488 40.4299 43.7436C40.1218 44.6191 40.0431 45.6243 39.9305 47.031L39.9135 47.2478C39.8482 48.4934 39.3568 49.6788 38.5216 50.6053L38.3814 50.771C37.4655 51.8463 36.8089 52.6134 36.4094 53.4506C35.9546 54.4029 35.7186 55.4448 35.7186 56.5C35.7186 57.5552 35.9546 58.5971 36.4094 59.5494C36.811 60.3866 37.4655 61.1538 38.3814 62.2269L38.5216 62.3948C39.3929 63.4148 39.8051 64.3901 39.9135 65.7523L39.9305 65.969C40.0431 67.3758 40.1218 68.3809 40.432 69.2564C40.7835 70.2514 41.3532 71.1552 42.0992 71.9016C42.8452 72.648 43.7488 73.2181 44.7436 73.5701C45.6191 73.8783 46.6243 73.9569 48.031 74.0695L48.2478 74.0865C49.5844 74.1928 50.564 74.5923 51.6053 75.4784L51.771 75.6186C52.8463 76.5345 53.6134 77.1911 54.4506 77.5906C55.4029 78.0454 56.4448 78.2814 57.5 78.2814C58.5552 78.2814 59.5971 78.0454 60.5494 77.5906C61.3866 77.189 62.1538 76.5345 63.2269 75.6186L63.3948 75.4784C64.4148 74.6071 65.3901 74.1949 66.7523 74.0865L66.969 74.0695C68.3758 73.9569 69.3809 73.8783 70.2564 73.568C71.2514 73.2165 72.1552 72.6468 72.9016 71.9008C73.648 71.1548 74.2181 70.2512 74.5701 69.2564C74.8783 68.3809 74.9569 67.3758 75.0695 65.969L75.0865 65.7523C75.1928 64.4156 75.5923 63.436 76.4784 62.3948L76.6186 62.2269C77.5345 61.1538 78.1911 60.3866 78.5906 59.5494C79.0454 58.5971 79.2814 57.5552 79.2814 56.5C79.2814 55.4448 79.0454 54.4029 78.5906 53.4506C78.189 52.6134 77.5345 51.8463 76.6186 50.7731L76.4784 50.6053C75.6432 49.6788 75.1518 48.4934 75.0865 47.2478L75.0695 47.031C74.9569 45.6243 74.8783 44.6191 74.568 43.7436C74.2165 42.7486 73.6468 41.8448 72.9008 41.0984C72.1548 40.352 71.2512 39.7819 70.2564 39.4299C69.3809 39.1218 68.3758 39.0431 66.969 38.9305L66.7523 38.9135C65.5066 38.8482 64.3212 38.3568 63.3948 37.5216L63.2269 37.3814C62.1538 36.4655 61.3866 35.8089 60.5494 35.4094ZM57.5 46.4063C57.9227 46.4063 58.3281 46.5742 58.627 46.873C58.9258 47.1719 59.0938 47.5773 59.0938 48V49.0625C59.0938 49.4852 58.9258 49.8906 58.627 50.1895C58.3281 50.4883 57.9227 50.6563 57.5 50.6563C57.0773 50.6563 56.6719 50.4883 56.3731 50.1895C56.0742 49.8906 55.9063 49.4852 55.9063 49.0625V48C55.9063 47.5773 56.0742 47.1719 56.3731 46.873C56.6719 46.5742 57.0773 46.4063 57.5 46.4063ZM54.8438 65C54.8438 64.6705 54.946 64.349 55.1363 64.08C55.3266 63.8109 55.5956 63.6075 55.9063 63.4976V55.8774C55.552 55.7519 55.2534 55.5053 55.0633 55.1811C54.8732 54.8569 54.8038 54.4759 54.8673 54.1055C54.9309 53.735 55.1233 53.399 55.4106 53.1567C55.698 52.9144 56.0617 52.7814 56.4375 52.7813H57.5C57.9227 52.7813 58.3281 52.9492 58.627 53.2481C58.9258 53.5469 59.0938 53.9523 59.0938 54.375V63.4976C59.448 63.6231 59.7466 63.8697 59.9367 64.1939C60.1268 64.5181 60.1962 64.8991 60.1327 65.2695C60.0691 65.64 59.8767 65.976 59.5894 66.2183C59.302 66.4606 58.9383 66.5936 58.5625 66.5938H56.4375C56.0148 66.5938 55.6094 66.4258 55.3106 66.127C55.0117 65.8281 54.8438 65.4227 54.8438 65Z" fill="#FFB735"/>
    </g>
    <defs>
        <filter id="filter0_d_1059_6679" x="0" y="0" width="115" height="115" filterUnits="userSpaceOnUse" color-interpolation-filters="sRGB">
            <feFlood flood-opacity="0" result="BackgroundImageFix"/>
            <feColorMatrix in="SourceAlpha" type="matrix" values="0 0 0 0 0 0 0 0 0 0 0 0 0 0 0 0 0 0 127 0" result="hardAlpha"/>
            <feOffset dy="1"/>
            <feGaussianBlur stdDeviation="10"/>
            <feComposite in2="hardAlpha" operator="out"/>
            <feColorMatrix type="matrix" values="0 0 0 0 0.894118 0 0 0 0 0.341176 0 0 0 0 0.105882 0 0 0 0.37 0"/>
            <feBlend mode="normal" in2="BackgroundImageFix" result="effect1_dropShadow_1059_6679"/>
            <feBlend mode="normal" in="SourceGraphic" in2="effect1_dropShadow_1059_6679" result="shape"/>
        </filter>
        <linearGradient id="paint0_linear_1059_6679" x1="57.5" y1="19" x2="57.5" y2="94" gradientUnits="userSpaceOnUse">
            <stop stop-color="#E4571B"/>
            <stop offset="1" stop-color="#4F1700"/>
        </linearGradient>
    </defs>
</svg>
