<svg width="91" height="90" viewBox="0 0 91 90" fill="none" xmlns="http://www.w3.org/2000/svg">
    <mask id="mask0_1059_7580" style="mask-type:alpha" maskUnits="userSpaceOnUse" x="0" y="0" width="91" height="90">
        <rect x="0.5" width="90" height="90" fill="#D9D9D9"/>
    </mask>
    <g mask="url(#mask0_1059_7580)">
        <g filter="url(#filter0_f_1059_7580)">
            <circle cx="45.8182" cy="44.8182" r="26.8182" fill="#FFB735" fill-opacity="0.75"/>
        </g>
        <circle cx="45.5" cy="44.5" r="29.5" fill="url(#paint0_linear_1059_7580)"/>
        <mask id="mask1_1059_7580" style="mask-type:alpha" maskUnits="userSpaceOnUse" x="17" y="16" width="57" height="57">
            <rect x="17.0039" y="16.0028" width="56.9943" height="56.9943" fill="#D9D9D9"/>
        </mask>
        <g mask="url(#mask1_1059_7580)">
            <circle cx="45.5011" cy="44.5" r="28.4972" fill="url(#paint1_linear_1059_7580)"/>
            <circle cx="45.5015" cy="44.5" r="24.0591" transform="rotate(90 45.5015 44.5)" fill="url(#paint2_linear_1059_7580)"/>
            <circle cx="45.5012" cy="44.4999" r="22.424" fill="url(#paint3_linear_1059_7580)"/>
            <mask id="mask2_1059_7580" style="mask-type:alpha" maskUnits="userSpaceOnUse" x="23" y="22" width="45" height="45">
                <circle cx="45.5012" cy="44.4999" r="22.424" fill="url(#paint4_linear_1059_7580)"/>
            </mask>
            <g mask="url(#mask2_1059_7580)">
                <ellipse cx="45.5013" cy="20.4408" rx="31.3002" ry="28.2636" fill="#F6CD1D"/>
            </g>
            <g style="mix-blend-mode:soft-light" opacity="0.48">
                <mask id="mask3_1059_7580" style="mask-type:alpha" maskUnits="userSpaceOnUse" x="17" y="16" width="57" height="57">
                    <circle cx="45.501" cy="44.4999" r="28.4972" transform="rotate(45 45.501 44.4999)" fill="url(#paint5_linear_1059_7580)"/>
                </mask>
                <g mask="url(#mask3_1059_7580)">
                    <g filter="url(#filter1_f_1059_7580)">
                        <rect x="30.6357" y="2.54712" width="73.5788" height="14.2486" transform="rotate(45 30.6357 2.54712)" fill="white" fill-opacity="0.46"/>
                    </g>
                    <g filter="url(#filter2_f_1059_7580)">
                        <rect x="12.1367" y="21.046" width="73.5788" height="2.56942" transform="rotate(45 12.1367 21.046)" fill="white" fill-opacity="0.52"/>
                    </g>
                    <g filter="url(#filter3_f_1059_7580)">
                        <path d="M75.3222 57.7136H62.4648L65.8323 38.7336L75.3222 47.3052V57.7136Z" fill="white"/>
                    </g>
                </g>
            </g>
            <g filter="url(#filter4_f_1059_7580)">
                <circle cx="56.9748" cy="68.1747" r="3.36741" fill="white" fill-opacity="0.56"/>
            </g>
            <g filter="url(#filter5_f_1059_7580)">
                <ellipse cx="48.9362" cy="30.3862" rx="9.01009" ry="6.13105" transform="rotate(45 48.9362 30.3862)" fill="white" fill-opacity="0.39"/>
            </g>
            <path d="M46.1685 31.5468L40.3822 43.17L41.3745 46.1654L40.2347 46.5423L39.2155 43.4729L34.7621 39.9055L33.9455 44.0047L34.7916 44.8528L33.9428 45.7009L32.923 44.6778L30.876 43.3047L32.5623 54.3033L35.1886 49.9146L41.2002 52.3244L43.272 55.4476H49.065L51.1368 52.3244L57.1511 49.9146L59.7727 54.3033L61.4624 43.3047L59.4107 44.6778L58.3915 45.7009L57.5467 44.8528L58.3915 44.0047L57.5735 39.9055L53.1215 43.4729L52.1023 46.5423L50.9625 46.1654L51.9548 43.17L46.1685 31.5468ZM46.1685 39.7978L49.9031 46.0442L50.0305 46.2596L48.8572 50.9714L47.4894 52.3378H44.8476L43.4798 50.9714L42.3065 46.2596L46.1685 39.7978ZM46.1685 42.1402L43.5938 46.4481L44.566 50.3521L45.3438 51.1397H46.9932L47.771 50.3521L48.7432 46.4481L46.1685 42.1402Z" fill="#482E06"/>
        </g>
    </g>
    <defs>
        <filter id="filter0_f_1059_7580" x="-1" y="-2" width="93.6367" height="93.6364" filterUnits="userSpaceOnUse" color-interpolation-filters="sRGB">
            <feFlood flood-opacity="0" result="BackgroundImageFix"/>
            <feBlend mode="normal" in="SourceGraphic" in2="BackgroundImageFix" result="shape"/>
            <feGaussianBlur stdDeviation="10" result="effect1_foregroundBlur_1059_7580"/>
        </filter>
        <filter id="filter1_f_1059_7580" x="18.5605" y="0.547119" width="66.1035" height="66.1033" filterUnits="userSpaceOnUse" color-interpolation-filters="sRGB">
            <feFlood flood-opacity="0" result="BackgroundImageFix"/>
            <feBlend mode="normal" in="SourceGraphic" in2="BackgroundImageFix" result="shape"/>
            <feGaussianBlur stdDeviation="1" result="effect1_foregroundBlur_1059_7580"/>
        </filter>
        <filter id="filter2_f_1059_7580" x="8.32031" y="19.046" width="57.8447" height="57.8448" filterUnits="userSpaceOnUse" color-interpolation-filters="sRGB">
            <feFlood flood-opacity="0" result="BackgroundImageFix"/>
            <feBlend mode="normal" in="SourceGraphic" in2="BackgroundImageFix" result="shape"/>
            <feGaussianBlur stdDeviation="1" result="effect1_foregroundBlur_1059_7580"/>
        </filter>
        <filter id="filter3_f_1059_7580" x="42.4648" y="18.7336" width="52.8574" height="58.98" filterUnits="userSpaceOnUse" color-interpolation-filters="sRGB">
            <feFlood flood-opacity="0" result="BackgroundImageFix"/>
            <feBlend mode="normal" in="SourceGraphic" in2="BackgroundImageFix" result="shape"/>
            <feGaussianBlur stdDeviation="10" result="effect1_foregroundBlur_1059_7580"/>
        </filter>
        <filter id="filter4_f_1059_7580" x="38.6074" y="49.8073" width="36.7344" height="36.7349" filterUnits="userSpaceOnUse" color-interpolation-filters="sRGB">
            <feFlood flood-opacity="0" result="BackgroundImageFix"/>
            <feBlend mode="normal" in="SourceGraphic" in2="BackgroundImageFix" result="shape"/>
            <feGaussianBlur stdDeviation="7.5" result="effect1_foregroundBlur_1059_7580"/>
        </filter>
        <filter id="filter5_f_1059_7580" x="11.2295" y="-7.3208" width="75.4141" height="75.4139" filterUnits="userSpaceOnUse" color-interpolation-filters="sRGB">
            <feFlood flood-opacity="0" result="BackgroundImageFix"/>
            <feBlend mode="normal" in="SourceGraphic" in2="BackgroundImageFix" result="shape"/>
            <feGaussianBlur stdDeviation="15" result="effect1_foregroundBlur_1059_7580"/>
        </filter>
        <linearGradient id="paint0_linear_1059_7580" x1="17.4508" y1="53.5676" x2="71.2521" y2="31.9262" gradientUnits="userSpaceOnUse">
            <stop stop-color="#C19A1B"/>
            <stop offset="1" stop-color="#FFDA48"/>
        </linearGradient>
        <linearGradient id="paint1_linear_1059_7580" x1="18.4054" y1="53.2594" x2="70.3777" y2="32.3536" gradientUnits="userSpaceOnUse">
            <stop stop-color="#F5B905"/>
            <stop offset="0.5" stop-color="#FFDF39"/>
            <stop offset="1" stop-color="#EBAC11"/>
        </linearGradient>
        <linearGradient id="paint2_linear_1059_7580" x1="22.6256" y1="51.8952" x2="66.5039" y2="34.2453" gradientUnits="userSpaceOnUse">
            <stop stop-color="#C87500"/>
            <stop offset="1" stop-color="#F9E045"/>
        </linearGradient>
        <linearGradient id="paint3_linear_1059_7580" x1="24.18" y1="51.3926" x2="65.0762" y2="34.9422" gradientUnits="userSpaceOnUse">
            <stop stop-color="#ECB213"/>
            <stop offset="1" stop-color="#F4C012"/>
        </linearGradient>
        <linearGradient id="paint4_linear_1059_7580" x1="24.18" y1="51.3926" x2="65.0762" y2="34.9422" gradientUnits="userSpaceOnUse">
            <stop stop-color="#ECB213"/>
            <stop offset="1" stop-color="#F4C012"/>
        </linearGradient>
        <linearGradient id="paint5_linear_1059_7580" x1="18.4053" y1="53.2593" x2="70.3776" y2="32.3536" gradientUnits="userSpaceOnUse">
            <stop stop-color="#F5B905"/>
            <stop offset="0.5" stop-color="#FFDF39"/>
            <stop offset="1" stop-color="#EBAC11"/>
        </linearGradient>
    </defs>
</svg>
