<svg width="30" height="30" viewBox="0 0 30 30" fill="none" xmlns="http://www.w3.org/2000/svg">
<path fill-rule="evenodd" clip-rule="evenodd" d="M13.5563 10.1188C13.3807 10.2946 13.2821 10.5328 13.2821 10.7813C13.2821 11.0297 13.3807 11.268 13.5563 11.4438L15.7062 13.5938H5.46875C5.22011 13.5938 4.98165 13.6926 4.80584 13.8684C4.63002 14.0442 4.53125 14.2826 4.53125 14.5313C4.53125 14.7799 4.63002 15.0184 4.80584 15.1942C4.98165 15.37 5.22011 15.4688 5.46875 15.4688H15.7062L13.5563 17.6188C13.4641 17.7046 13.3903 17.8081 13.339 17.9231C13.2878 18.0381 13.2602 18.1622 13.258 18.2881C13.2558 18.414 13.2789 18.539 13.3261 18.6558C13.3732 18.7725 13.4434 18.8786 13.5325 18.9676C13.6215 19.0566 13.7275 19.1268 13.8443 19.1739C13.961 19.2211 14.086 19.2442 14.2119 19.242C14.3378 19.2398 14.4619 19.2122 14.5769 19.161C14.6919 19.1098 14.7954 19.0359 14.8812 18.9438L18.6312 15.1938C18.8068 15.018 18.9054 14.7797 18.9054 14.5313C18.9054 14.2828 18.8068 14.0446 18.6312 13.8688L14.8812 10.1188C14.7055 9.94322 14.4672 9.8446 14.2188 9.8446C13.9703 9.8446 13.732 9.94322 13.5563 10.1188Z" fill="#E4571B"/>
<path d="M15.4688 7.34625C15.4688 7.90625 15.8112 8.39625 16.2075 8.7925L19.9575 12.5425C20.2187 12.8037 20.4258 13.1137 20.5672 13.4549C20.7085 13.7962 20.7813 14.1619 20.7813 14.5312C20.7813 14.9006 20.7085 15.2663 20.5672 15.6076C20.4258 15.9488 20.2187 16.2588 19.9575 16.52L16.2075 20.27C15.8112 20.6663 15.4688 21.1562 15.4688 21.7162V24.5312C18.1209 24.5312 20.6645 23.4777 22.5398 21.6023C24.4152 19.727 25.4688 17.1834 25.4688 14.5312C25.4688 11.8791 24.4152 9.33555 22.5398 7.46018C20.6645 5.58482 18.1209 4.53125 15.4688 4.53125V7.34625Z" fill="#E4571B"/>
</svg>
