<svg width="12" height="18" viewBox="0 0 12 18" fill="none" xmlns="http://www.w3.org/2000/svg">
    <path d="M0 3.2C0 2.08 -5.96046e-08 1.52 0.218 1.092C0.409744 0.715693 0.715693 0.409744 1.092 0.218C1.52 -5.96046e-08 2.08 0 3.2 0H8.8C9.92 0 10.48 -5.96046e-08 10.908 0.218C11.2843 0.409744 11.5903 0.715693 11.782 1.092C12 1.52 12 2.08 12 3.2V16.505C12 16.991 12 17.234 11.899 17.367C11.8554 17.4248 11.7997 17.4725 11.7358 17.5067C11.6719 17.5409 11.6013 17.5608 11.529 17.565C11.362 17.575 11.16 17.44 10.756 17.171L6 14L1.244 17.17C0.84 17.44 0.638 17.575 0.47 17.565C0.397836 17.5606 0.327477 17.5407 0.263772 17.5065C0.200068 17.4723 0.144535 17.4247 0.101 17.367C-1.71363e-07 17.234 0 16.991 0 16.505V3.2Z" fill="url(#paint0_linear_1059_7676)"/>
    <defs>
        <linearGradient id="paint0_linear_1059_7676" x1="2.25" y1="2.25" x2="15.8812" y2="11.8942" gradientUnits="userSpaceOnUse">
            <stop stop-color="#E4571B"/>
            <stop offset="1" stop-color="#F5A350"/>
        </linearGradient>
    </defs>
</svg>
