<svg width="36" height="36" viewBox="0 0 36 36" fill="none" xmlns="http://www.w3.org/2000/svg">
    <g clip-path="url(#clip0_1059_6393)">
        <circle cx="18" cy="18.0002" r="18" fill="white"/>
        <path d="M24.9998 16.5835C25.0238 13.4048 22.5649 10.4903 19.5187 10.0876L19.3189 10.0556C19.1661 10.0234 19.0111 10.0049 18.8555 10.0002C18.2303 10.0002 18.0645 10.4817 18.0205 10.7694C17.9956 10.8888 17.9934 11.0124 18.0139 11.1328C18.0345 11.2531 18.0775 11.3679 18.1404 11.4703C18.3481 11.7792 18.7117 11.8325 19.0033 11.8793C19.0912 11.8907 19.1691 11.9049 19.237 11.9219C21.9756 12.5931 22.8984 13.6519 23.3479 16.641C23.3585 16.7163 23.3652 16.8029 23.3679 16.9009C23.3878 17.2567 23.4298 18.0002 24.1569 18.0002C24.2168 18.0002 24.2807 17.9946 24.3486 17.9832C25.0258 17.8703 25.0038 17.1907 24.9938 16.8647C24.9897 16.7859 24.9897 16.707 24.9938 16.6282L24.9978 16.5856L24.9998 16.5835Z" fill="#020100"/>
        <path d="M18.9616 9.67485C19.0417 9.6808 19.1219 9.68675 19.184 9.69667C23.6907 10.407 25.7659 12.5895 26.3407 17.2364C26.3487 17.317 26.3527 17.4096 26.3527 17.5141C26.3588 17.8772 26.3708 18.6312 27.164 18.6471H27.188C27.2969 18.6531 27.4059 18.6358 27.5075 18.5964C27.6091 18.5571 27.701 18.4965 27.7769 18.4189C28.0233 18.155 28.0072 17.7641 27.9932 17.4467C27.9879 17.37 27.9859 17.2992 27.9872 17.2344C28.0433 12.4824 24.0212 8.17286 19.3782 8.01413L19.3222 8.01612L19.2681 8.02009C19.22 8.02009 19.1653 8.01744 19.1038 8.01215L18.8635 8.00024C18.1244 8.00024 17.9841 8.53596 17.9661 8.85739C17.9261 9.59747 18.6251 9.65104 18.9616 9.67485ZM26.1224 23.2403L25.836 23.0122C25.3432 22.6074 24.8184 22.2344 24.3137 21.8733L23.9972 21.6471C23.3482 21.1828 22.7653 20.9546 22.2145 20.9546C21.4734 20.9546 20.8264 21.3752 20.2916 22.2026C20.0579 22.5664 19.7655 22.7476 19.4143 22.7463C19.1682 22.7375 18.927 22.6759 18.7072 22.5657C16.6141 21.5935 15.1178 20.1054 14.2625 18.1411C13.8499 17.1887 13.9821 16.5697 14.7112 16.0637C15.1238 15.778 15.893 15.2443 15.8389 14.2225C15.7788 13.0618 13.2731 9.56969 12.2175 9.17286C11.767 9.00524 11.2708 9.00383 10.8194 9.1689C9.60754 9.58556 8.73623 10.3197 8.30157 11.286C7.88094 12.2225 7.90097 13.3197 8.35766 14.4625C9.67364 17.7681 11.5224 20.6491 13.8579 23.026C16.1414 25.3534 18.9496 27.2582 22.2025 28.6907C22.4949 28.8197 22.8034 28.8891 23.0277 28.9407L23.218 28.9883C23.2443 28.995 23.2711 28.999 23.2981 29.0002H23.3242C24.8545 29.0002 26.6913 27.5717 27.2561 25.9407C27.7508 24.5121 26.8475 23.8078 26.1224 23.2423V23.2403ZM19.6386 13.4506C19.3782 13.4566 18.8314 13.4705 18.6391 14.0379C18.551 14.3051 18.5617 14.5333 18.6712 14.7225C18.8334 15.0002 19.1459 15.0856 19.4283 15.1312C20.4539 15.2998 20.9827 15.8812 21.0868 16.9566C21.1369 17.4606 21.4674 17.8098 21.892 17.8098L21.9882 17.8058C22.4996 17.741 22.7446 17.3607 22.7233 16.6649C22.7313 15.9387 22.3607 15.1173 21.7298 14.4625C21.0968 13.8038 20.3337 13.4328 19.6386 13.4506Z" fill="#020100"/>
    </g>
    <defs>
        <clipPath id="clip0_1059_6393">
            <rect width="36" height="36" fill="white"/>
        </clipPath>
    </defs>
</svg>
